<svg width="42" height="24" viewBox="0 0 42 24" fill="none" xmlns="http://www.w3.org/2000/svg">
<path fill-rule="evenodd" clip-rule="evenodd" d="M21.4172 20.8226C19.251 22.5501 16.441 23.5929 13.3705 23.5929C6.51932 23.5929 0.965332 18.4009 0.965332 11.9963C0.965332 5.59167 6.51932 0.399689 13.3705 0.399689C16.441 0.399689 19.251 1.44254 21.4172 3.17002C23.5834 1.44254 26.3933 0.399699 29.4638 0.399699C36.315 0.399699 41.869 5.59168 41.869 11.9963C41.869 18.4009 36.315 23.5929 29.4638 23.5929C26.3933 23.5929 23.5834 22.5501 21.4172 20.8226Z" fill="#ED0006"/>
<path fill-rule="evenodd" clip-rule="evenodd" d="M21.417 20.8225C24.0842 18.6955 25.7754 15.5305 25.7754 11.9963C25.7754 8.46209 24.0842 5.29714 21.417 3.17011C23.5832 1.44257 26.3932 0.399689 29.4638 0.399689C36.315 0.399689 41.869 5.59167 41.869 11.9963C41.869 18.4009 36.315 23.5929 29.4638 23.5929C26.3932 23.5929 23.5832 22.55 21.417 20.8225Z" fill="#F9A000"/>
<path fill-rule="evenodd" clip-rule="evenodd" d="M21.417 20.8224C24.0842 18.6954 25.7754 15.5304 25.7754 11.9962C25.7754 8.46199 24.0842 5.29704 21.417 3.17001C18.7498 5.29704 17.0586 8.46199 17.0586 11.9962C17.0586 15.5304 18.7498 18.6954 21.417 20.8224Z" fill="#FF5E00"/>
</svg>
