<svg width="46" height="13" viewBox="0 0 46 13" fill="none" xmlns="http://www.w3.org/2000/svg">
<path d="M5.50582 7.2811C6.42754 7.28034 7.31865 6.95018 8.01837 6.3502C8.71809 5.75023 9.18034 4.91993 9.32173 4.00911C9.61988 2.11052 8.1364 0.453116 6.03446 0.453116H2.64665C2.58311 0.452297 2.52141 0.474481 2.47294 0.515576C2.42447 0.556671 2.39249 0.613907 2.3829 0.676728L0.873048 10.2603C0.867592 10.2953 0.869772 10.3311 0.879436 10.3652C0.8891 10.3993 0.906021 10.4309 0.929039 10.4578C0.952057 10.4847 0.980628 10.5064 1.01279 10.5212C1.04496 10.5361 1.07996 10.5438 1.11539 10.5439H2.9081C2.97151 10.5445 3.03303 10.5223 3.08134 10.4812C3.12965 10.4401 3.16152 10.383 3.17108 10.3203L3.61525 7.50509C3.62474 7.44227 3.65663 7.38499 3.70503 7.34383C3.75343 7.30266 3.81508 7.28038 3.87861 7.2811H5.50582ZM7.00611 3.92272C6.89526 4.62452 6.35286 5.14169 5.3147 5.14169H3.98679L4.38929 2.58832H5.69311C6.76721 2.59061 7.1162 3.22399 7.00611 3.92463V3.92272ZM17.0889 3.47168H15.3868C15.3232 3.47094 15.2616 3.49315 15.2131 3.53423C15.1647 3.57531 15.1327 3.6325 15.123 3.69529L15.068 4.04848C15.068 4.04848 13.7466 2.60552 11.408 3.58023C10.0663 4.13869 9.42265 5.29268 9.14896 6.13743C9.14896 6.13743 8.2786 8.70533 10.246 10.1192C10.246 10.1192 12.0697 11.4785 14.1238 10.0351L14.0883 10.2603C14.0828 10.2953 14.0849 10.3311 14.0945 10.3652C14.1042 10.3993 14.1211 10.431 14.1441 10.4579C14.1672 10.4849 14.1957 10.5065 14.2279 10.5214C14.2601 10.5362 14.2952 10.5439 14.3306 10.5439H16.032C16.0955 10.5447 16.1572 10.5225 16.2057 10.4815C16.2542 10.4404 16.2861 10.3831 16.2957 10.3203L17.3308 3.7553C17.3363 3.72029 17.3341 3.68451 17.3245 3.65042C17.3148 3.61633 17.2979 3.58474 17.2748 3.5578C17.2518 3.53086 17.2233 3.50921 17.1911 3.49435C17.1589 3.47949 17.1243 3.47175 17.0889 3.47168ZM14.5863 7.09991C14.5198 7.55733 14.2895 7.97507 13.9383 8.27564C13.5872 8.57621 13.1389 8.7392 12.6767 8.73438C12.4957 8.73644 12.3155 8.70999 12.1427 8.65602C11.4088 8.42056 10.9902 7.71494 11.1106 6.95046C11.1773 6.49178 11.4085 6.073 11.7611 5.7722C12.1137 5.47141 12.5637 5.30912 13.0272 5.31561C13.2084 5.3137 13.3888 5.34046 13.5616 5.39435C14.2928 5.62905 14.7087 6.33467 14.5883 7.09991H14.5863Z" fill="#003087"/>
<path d="M30.0123 7.28109C30.9346 7.28084 31.8263 6.95095 32.5267 6.35095C33.2271 5.75095 33.6899 4.92037 33.8317 4.0091C34.1295 2.11051 32.6464 0.453108 30.5437 0.453108H27.157C27.0935 0.452462 27.032 0.474716 26.9836 0.515789C26.9352 0.556861 26.9033 0.613999 26.8936 0.676719L25.3792 10.263C25.3705 10.3158 25.3795 10.3699 25.4047 10.4171C25.4299 10.4643 25.47 10.5019 25.5187 10.524C25.5509 10.539 25.586 10.5469 25.6215 10.547H27.4146C27.4781 10.5476 27.5397 10.5253 27.5881 10.4841C27.6365 10.443 27.6684 10.3858 27.678 10.323L28.1225 7.50776C28.132 7.4449 28.1638 7.38758 28.2122 7.3464C28.2607 7.30522 28.3223 7.28297 28.3859 7.28376L30.0123 7.28109ZM31.5126 3.92271C31.4018 4.62451 30.8594 5.14168 29.8208 5.14168H28.4933L28.8962 2.58831H30.2C31.2734 2.5906 31.6231 3.22398 31.5126 3.92463V3.92271ZM41.595 3.47167H39.8948C39.8314 3.47102 39.7698 3.49328 39.7214 3.53435C39.673 3.57542 39.6411 3.63256 39.6314 3.69528L39.5756 4.04847C39.5756 4.04847 38.2546 2.60551 35.9161 3.58023C34.5748 4.13868 33.9307 5.29267 33.6566 6.13742C33.6566 6.13742 32.7866 8.70532 34.7537 10.1192C34.7537 10.1192 36.5777 11.4785 38.6319 10.0351L38.5963 10.2603C38.5877 10.3131 38.5966 10.3673 38.6219 10.4145C38.6471 10.4616 38.6871 10.4992 38.7359 10.5213C38.768 10.5366 38.8031 10.5443 38.8387 10.5443H40.54C40.6036 10.5452 40.6654 10.523 40.7139 10.4818C40.7623 10.4406 40.7941 10.3832 40.8034 10.3203L41.8389 3.75529C41.844 3.72017 41.8416 3.68436 41.8318 3.65023C41.8221 3.6161 41.8052 3.58442 41.7823 3.55729C41.7593 3.5301 41.7306 3.50832 41.6982 3.49352C41.6659 3.47872 41.6306 3.47126 41.595 3.47167ZM39.0929 7.09991C39.027 7.55767 38.797 7.97587 38.4457 8.27659C38.0943 8.5773 37.6456 8.74001 37.1832 8.73437C37.0019 8.73651 36.8215 8.71007 36.6484 8.65601C35.9141 8.42055 35.4952 7.71493 35.6156 6.95045C35.6821 6.49296 35.9123 6.07513 36.2635 5.77448C36.6147 5.47384 37.063 5.31079 37.5253 5.3156C37.7069 5.31369 37.8873 5.34007 38.06 5.39434C38.7989 5.62904 39.2159 6.33466 39.0948 7.09991H39.0929Z" fill="#0070E0"/>
<path d="M23.3355 3.63405L21.284 7.09677L20.2431 3.65966C20.2268 3.60511 20.1933 3.55732 20.1475 3.52343C20.1018 3.48953 20.0463 3.47134 19.9893 3.47159H18.1385C18.1066 3.47098 18.075 3.47812 18.0465 3.4924C18.018 3.50667 17.9933 3.52766 17.9747 3.55356C17.956 3.57946 17.9439 3.60949 17.9395 3.64109C17.935 3.67268 17.9382 3.7049 17.9489 3.73496L19.8143 9.52439L18.1274 12.2528C18.1084 12.2829 18.0978 12.3175 18.0968 12.353C18.0957 12.3886 18.1043 12.4238 18.1216 12.4548C18.1389 12.4859 18.1643 12.5118 18.195 12.5296C18.2258 12.5475 18.2608 12.5567 18.2964 12.5563H20.2905C20.3476 12.5566 20.4037 12.542 20.4534 12.514C20.503 12.486 20.5445 12.4455 20.5738 12.3966L25.7845 3.77624C25.8033 3.74616 25.8136 3.71157 25.8143 3.67612C25.8151 3.64067 25.8063 3.60567 25.7888 3.57481C25.7714 3.54394 25.7459 3.51835 25.7152 3.50072C25.6844 3.4831 25.6495 3.47409 25.614 3.47465H23.6206C23.5633 3.47399 23.5068 3.48835 23.4568 3.51632C23.4068 3.54429 23.3649 3.58488 23.3355 3.63405Z" fill="#003087"/>
<path d="M43.5084 0.673942L41.9939 10.2602C41.9853 10.313 41.9942 10.3672 42.0195 10.4143C42.0447 10.4615 42.0847 10.4991 42.1334 10.5212C42.1656 10.5365 42.2007 10.5442 42.2363 10.5442H44.0286C44.0922 10.545 44.1539 10.5227 44.2023 10.4815C44.2507 10.4404 44.2825 10.383 44.292 10.3202L45.8068 0.733954C45.8124 0.698938 45.8104 0.663109 45.8007 0.628974C45.7911 0.594839 45.7741 0.563222 45.751 0.536336C45.7279 0.509433 45.6993 0.487824 45.6671 0.472982C45.6349 0.458141 45.5999 0.450414 45.5644 0.450331H43.7717C43.7083 0.449684 43.6467 0.471939 43.5983 0.513012C43.55 0.554084 43.518 0.611222 43.5084 0.673942Z" fill="#0070E0"/>
</svg>
